<mxfile host="app.diagrams.net" modified="2022-10-26T02:29:27.914Z" agent="5.0 (Windows NT 10.0; Win64; x64) AppleWebKit/537.36 (KHTML, like Gecko) Chrome/106.0.0.0 Safari/537.36 Edg/106.0.1370.52" etag="YDASlqyCP6-LJudwpIWm" version="20.4.1" type="github">
  <diagram id="prtHgNgQTEPvFCAcTncT" name="Page-1">
    <mxGraphModel dx="1422" dy="762" grid="1" gridSize="10" guides="1" tooltips="1" connect="1" arrows="1" fold="1" page="1" pageScale="1" pageWidth="827" pageHeight="1169" math="0" shadow="0">
      <root>
        <mxCell id="0" />
        <mxCell id="1" parent="0" />
        <mxCell id="czG7VXKnSmkg5VHOTaVV-28" value="Tree Container" style="swimlane;startSize=20;horizontal=1;containerType=tree;" vertex="1" parent="1">
          <mxGeometry x="110" y="70" width="1270" height="420" as="geometry" />
        </mxCell>
        <mxCell id="czG7VXKnSmkg5VHOTaVV-29" value="" style="edgeStyle=elbowEdgeStyle;elbow=vertical;startArrow=none;endArrow=none;rounded=0;" edge="1" parent="czG7VXKnSmkg5VHOTaVV-28" source="czG7VXKnSmkg5VHOTaVV-30" target="czG7VXKnSmkg5VHOTaVV-31">
          <mxGeometry relative="1" as="geometry" />
        </mxCell>
        <mxCell id="czG7VXKnSmkg5VHOTaVV-30" value="BpmnEditor" style="whiteSpace=wrap;html=1;treeFolding=1;treeMoving=1;newEdgeStyle={&quot;edgeStyle&quot;:&quot;elbowEdgeStyle&quot;,&quot;startArrow&quot;:&quot;none&quot;,&quot;endArrow&quot;:&quot;none&quot;};" vertex="1" parent="czG7VXKnSmkg5VHOTaVV-28">
          <mxGeometry x="830" y="40" width="120" height="40" as="geometry" />
        </mxCell>
        <mxCell id="czG7VXKnSmkg5VHOTaVV-31" value="&lt;div class=&quot;mind-clipboard&quot;&gt;process-designer&lt;br&gt;流程设计器&lt;/div&gt;" style="whiteSpace=wrap;html=1;treeFolding=1;treeMoving=1;newEdgeStyle={&quot;edgeStyle&quot;:&quot;elbowEdgeStyle&quot;,&quot;startArrow&quot;:&quot;none&quot;,&quot;endArrow&quot;:&quot;none&quot;};" vertex="1" parent="czG7VXKnSmkg5VHOTaVV-28">
          <mxGeometry x="580" y="120" width="120" height="40" as="geometry" />
        </mxCell>
        <mxCell id="czG7VXKnSmkg5VHOTaVV-42" value="" style="edgeStyle=elbowEdgeStyle;elbow=vertical;startArrow=none;endArrow=none;rounded=0;" edge="1" target="czG7VXKnSmkg5VHOTaVV-43" source="czG7VXKnSmkg5VHOTaVV-31" parent="czG7VXKnSmkg5VHOTaVV-28">
          <mxGeometry relative="1" as="geometry">
            <mxPoint x="480" y="150" as="sourcePoint" />
          </mxGeometry>
        </mxCell>
        <mxCell id="czG7VXKnSmkg5VHOTaVV-43" value="&lt;div class=&quot;mind-clipboard&quot;&gt;&lt;span style=&quot;color: rgb(68, 68, 68); font-family: 微软雅黑; font-size: 13px; text-align: left; background-color: rgb(255, 255, 255);&quot;&gt;this.initBpmnModeler()&lt;/span&gt;&lt;br&gt;&lt;/div&gt;" style="whiteSpace=wrap;html=1;treeFolding=1;treeMoving=1;newEdgeStyle={&quot;edgeStyle&quot;:&quot;elbowEdgeStyle&quot;,&quot;startArrow&quot;:&quot;none&quot;,&quot;endArrow&quot;:&quot;none&quot;};" vertex="1" parent="czG7VXKnSmkg5VHOTaVV-28">
          <mxGeometry x="360" y="200" width="160" height="40" as="geometry" />
        </mxCell>
        <mxCell id="czG7VXKnSmkg5VHOTaVV-46" value="" style="edgeStyle=elbowEdgeStyle;elbow=vertical;startArrow=none;endArrow=none;rounded=0;" edge="1" target="czG7VXKnSmkg5VHOTaVV-47" source="czG7VXKnSmkg5VHOTaVV-43" parent="czG7VXKnSmkg5VHOTaVV-28">
          <mxGeometry relative="1" as="geometry">
            <mxPoint x="390" y="230" as="sourcePoint" />
          </mxGeometry>
        </mxCell>
        <mxCell id="czG7VXKnSmkg5VHOTaVV-47" value="&lt;div class=&quot;mind-clipboard&quot;&gt;&lt;span style=&quot;color: rgb(68, 68, 68); font-family: 微软雅黑; font-size: 13px; text-align: left; background-color: rgb(255, 255, 255);&quot;&gt;this.bpmnModeler&amp;nbsp;=&amp;nbsp;new&amp;nbsp;BpmnModeler&lt;/span&gt;&lt;br&gt;&lt;/div&gt;" style="whiteSpace=wrap;html=1;treeFolding=1;treeMoving=1;newEdgeStyle={&quot;edgeStyle&quot;:&quot;elbowEdgeStyle&quot;,&quot;startArrow&quot;:&quot;none&quot;,&quot;endArrow&quot;:&quot;none&quot;};" vertex="1" parent="czG7VXKnSmkg5VHOTaVV-28">
          <mxGeometry x="50" y="280" width="260" height="40" as="geometry" />
        </mxCell>
        <mxCell id="czG7VXKnSmkg5VHOTaVV-48" value="" style="edgeStyle=elbowEdgeStyle;elbow=vertical;startArrow=none;endArrow=none;rounded=0;" edge="1" target="czG7VXKnSmkg5VHOTaVV-49" source="czG7VXKnSmkg5VHOTaVV-43" parent="czG7VXKnSmkg5VHOTaVV-28">
          <mxGeometry relative="1" as="geometry">
            <mxPoint x="250" y="310" as="sourcePoint" />
          </mxGeometry>
        </mxCell>
        <mxCell id="czG7VXKnSmkg5VHOTaVV-49" value="&lt;div class=&quot;mind-clipboard&quot;&gt;&lt;span style=&quot;color: rgb(68, 68, 68); font-family: 微软雅黑; font-size: 13px; text-align: left; background-color: rgb(255, 255, 255);&quot;&gt;this.$emit(&quot;init-finished&quot;,&amp;nbsp;this.bpmnModeler);&lt;/span&gt;&lt;br&gt;&lt;/div&gt;" style="whiteSpace=wrap;html=1;treeFolding=1;treeMoving=1;newEdgeStyle={&quot;edgeStyle&quot;:&quot;elbowEdgeStyle&quot;,&quot;startArrow&quot;:&quot;none&quot;,&quot;endArrow&quot;:&quot;none&quot;};" vertex="1" parent="czG7VXKnSmkg5VHOTaVV-28">
          <mxGeometry x="320" y="280" width="320" height="40" as="geometry" />
        </mxCell>
        <mxCell id="czG7VXKnSmkg5VHOTaVV-50" value="" style="edgeStyle=elbowEdgeStyle;elbow=vertical;startArrow=none;endArrow=none;rounded=0;" edge="1" target="czG7VXKnSmkg5VHOTaVV-51" source="czG7VXKnSmkg5VHOTaVV-43" parent="czG7VXKnSmkg5VHOTaVV-28">
          <mxGeometry relative="1" as="geometry">
            <mxPoint x="250" y="310" as="sourcePoint" />
          </mxGeometry>
        </mxCell>
        <mxCell id="czG7VXKnSmkg5VHOTaVV-51" value="&lt;div class=&quot;mind-clipboard&quot;&gt;&lt;span style=&quot;color: rgb(68, 68, 68); font-family: 微软雅黑; font-size: 13px; text-align: left; background-color: rgb(255, 255, 255);&quot;&gt;this.initModelListeners();&lt;/span&gt;&lt;br&gt;&lt;/div&gt;" style="whiteSpace=wrap;html=1;treeFolding=1;treeMoving=1;newEdgeStyle={&quot;edgeStyle&quot;:&quot;elbowEdgeStyle&quot;,&quot;startArrow&quot;:&quot;none&quot;,&quot;endArrow&quot;:&quot;none&quot;};" vertex="1" parent="czG7VXKnSmkg5VHOTaVV-28">
          <mxGeometry x="650" y="280" width="180" height="40" as="geometry" />
        </mxCell>
        <mxCell id="czG7VXKnSmkg5VHOTaVV-52" value="" style="edgeStyle=elbowEdgeStyle;elbow=vertical;startArrow=none;endArrow=none;rounded=0;" edge="1" target="czG7VXKnSmkg5VHOTaVV-53" source="czG7VXKnSmkg5VHOTaVV-47" parent="czG7VXKnSmkg5VHOTaVV-28">
          <mxGeometry relative="1" as="geometry">
            <mxPoint x="250" y="310" as="sourcePoint" />
          </mxGeometry>
        </mxCell>
        <mxCell id="czG7VXKnSmkg5VHOTaVV-53" value="&lt;div class=&quot;mind-clipboard&quot;&gt;&lt;span style=&quot;color: rgb(68, 68, 68); font-family: 微软雅黑; font-size: 13px; text-align: left; background-color: rgb(255, 255, 255);&quot;&gt;container&lt;/span&gt;&lt;br&gt;&lt;/div&gt;" style="whiteSpace=wrap;html=1;treeFolding=1;treeMoving=1;newEdgeStyle={&quot;edgeStyle&quot;:&quot;elbowEdgeStyle&quot;,&quot;startArrow&quot;:&quot;none&quot;,&quot;endArrow&quot;:&quot;none&quot;};" vertex="1" parent="czG7VXKnSmkg5VHOTaVV-28">
          <mxGeometry x="10" y="360" width="90" height="30" as="geometry" />
        </mxCell>
        <mxCell id="czG7VXKnSmkg5VHOTaVV-54" value="" style="edgeStyle=elbowEdgeStyle;elbow=vertical;startArrow=none;endArrow=none;rounded=0;" edge="1" target="czG7VXKnSmkg5VHOTaVV-55" source="czG7VXKnSmkg5VHOTaVV-47" parent="czG7VXKnSmkg5VHOTaVV-28">
          <mxGeometry relative="1" as="geometry">
            <mxPoint x="250" y="390" as="sourcePoint" />
          </mxGeometry>
        </mxCell>
        <mxCell id="czG7VXKnSmkg5VHOTaVV-55" value="&lt;div class=&quot;mind-clipboard&quot;&gt;&lt;span style=&quot;color: rgb(68, 68, 68); font-family: 微软雅黑; font-size: 13px; text-align: left; background-color: rgb(255, 255, 255);&quot;&gt;additionalModules&lt;/span&gt;&lt;br&gt;&lt;/div&gt;" style="whiteSpace=wrap;html=1;treeFolding=1;treeMoving=1;newEdgeStyle={&quot;edgeStyle&quot;:&quot;elbowEdgeStyle&quot;,&quot;startArrow&quot;:&quot;none&quot;,&quot;endArrow&quot;:&quot;none&quot;};" vertex="1" parent="czG7VXKnSmkg5VHOTaVV-28">
          <mxGeometry x="115" y="360" width="130" height="30" as="geometry" />
        </mxCell>
        <mxCell id="czG7VXKnSmkg5VHOTaVV-56" value="" style="edgeStyle=elbowEdgeStyle;elbow=vertical;startArrow=none;endArrow=none;rounded=0;" edge="1" target="czG7VXKnSmkg5VHOTaVV-57" source="czG7VXKnSmkg5VHOTaVV-47" parent="czG7VXKnSmkg5VHOTaVV-28">
          <mxGeometry relative="1" as="geometry">
            <mxPoint x="250" y="390" as="sourcePoint" />
          </mxGeometry>
        </mxCell>
        <mxCell id="czG7VXKnSmkg5VHOTaVV-57" value="&lt;div class=&quot;mind-clipboard&quot;&gt;&lt;span style=&quot;color: rgb(68, 68, 68); font-family: 微软雅黑; font-size: 13px; text-align: left; background-color: rgb(255, 255, 255);&quot;&gt;moddleExtensions&lt;/span&gt;&lt;br&gt;&lt;/div&gt;" style="whiteSpace=wrap;html=1;treeFolding=1;treeMoving=1;newEdgeStyle={&quot;edgeStyle&quot;:&quot;elbowEdgeStyle&quot;,&quot;startArrow&quot;:&quot;none&quot;,&quot;endArrow&quot;:&quot;none&quot;};" vertex="1" parent="czG7VXKnSmkg5VHOTaVV-28">
          <mxGeometry x="260" y="360" width="130" height="30" as="geometry" />
        </mxCell>
        <mxCell id="czG7VXKnSmkg5VHOTaVV-45" value="&lt;div class=&quot;mind-clipboard&quot;&gt;&lt;span style=&quot;color: rgb(68, 68, 68); font-family: 微软雅黑; font-size: 13px; text-align: left; background-color: rgb(255, 255, 255);&quot;&gt;this.createNewDiagram(this.value);&lt;/span&gt;&lt;br&gt;&lt;/div&gt;" style="whiteSpace=wrap;html=1;treeFolding=1;treeMoving=1;newEdgeStyle={&quot;edgeStyle&quot;:&quot;elbowEdgeStyle&quot;,&quot;startArrow&quot;:&quot;none&quot;,&quot;endArrow&quot;:&quot;none&quot;};" vertex="1" parent="1">
          <mxGeometry x="940" y="270" width="230" height="40" as="geometry" />
        </mxCell>
        <mxCell id="czG7VXKnSmkg5VHOTaVV-44" value="" style="edgeStyle=elbowEdgeStyle;elbow=vertical;startArrow=none;endArrow=none;rounded=0;" edge="1" target="czG7VXKnSmkg5VHOTaVV-45" source="czG7VXKnSmkg5VHOTaVV-31" parent="1">
          <mxGeometry relative="1" as="geometry">
            <mxPoint x="530" y="300" as="sourcePoint" />
          </mxGeometry>
        </mxCell>
        <mxCell id="czG7VXKnSmkg5VHOTaVV-37" value="&lt;div class=&quot;mind-clipboard&quot;&gt;properties-panel&lt;br&gt;属性面板&lt;/div&gt;" style="whiteSpace=wrap;html=1;treeFolding=1;treeMoving=1;newEdgeStyle={&quot;edgeStyle&quot;:&quot;elbowEdgeStyle&quot;,&quot;startArrow&quot;:&quot;none&quot;,&quot;endArrow&quot;:&quot;none&quot;};" vertex="1" parent="1">
          <mxGeometry x="1210" y="190" width="120" height="40" as="geometry" />
        </mxCell>
        <mxCell id="czG7VXKnSmkg5VHOTaVV-36" value="" style="edgeStyle=elbowEdgeStyle;elbow=vertical;startArrow=none;endArrow=none;rounded=0;" edge="1" target="czG7VXKnSmkg5VHOTaVV-37" source="czG7VXKnSmkg5VHOTaVV-30" parent="1">
          <mxGeometry relative="1" as="geometry">
            <mxPoint x="630" y="220" as="sourcePoint" />
          </mxGeometry>
        </mxCell>
      </root>
    </mxGraphModel>
  </diagram>
</mxfile>
